<?xml version="1.0" encoding="utf-8"?>
<!-- Generator: Adobe Illustrator 19.2.1, SVG Export Plug-In . SVG Version: 6.00 Build 0)  -->
<svg version="1.1" id="layer" xmlns="http://www.w3.org/2000/svg" xmlns:xlink="http://www.w3.org/1999/xlink" x="0px" y="0px"
	 viewBox="0 0 652 652" style="enable-background:new 0 0 652 652;" xml:space="preserve">
<style type="text/css">
	.st0{fill:#E3000F;}
	.st1{fill:#770A00;}
	.st2{fill:#FFFFFF;}
</style>
<rect x="106.2" y="14.7" class="st0" width="440.2" height="623.6"/>
<g>
	<path class="st1" d="M167.9,239.5l-28.8,96.3h-32.9v-27.7l76.6-255.7h33h8.2h32.2l-35.3,283.4h-40.4l12-96.3H167.9z M212.4,99
		l-30.5,93.9h18.8L212.4,99z M277.5,354.9h46.7v46.7h-46.7V354.9z M277.5,410.7h46.7v196h-46.7V410.7z M211.7,504.1h-17.2v57h17.2
		V504.1z M211.7,400.4h-17.2v57h17.2V400.4z M194.5,354.9h48.4c8.5,0,15.5,6.9,15.5,15.5v95c0,8.5-6.9,15.5-15.5,15.5
		c8.5,0,15.5,6.9,15.5,15.5v95c0,8.5-6.9,15.5-15.5,15.5h-48.4h-46.7V480.8v-126H194.5z M343.4,354.9h46.7v251.9h-46.7V354.9z
		 M409.3,591.3V425.6c0-8.5,6.9-15.5,15.5-15.5h48.7v-55.3h46.7v251.9h-46.7h-48.7C416.2,606.7,409.3,599.8,409.3,591.3 M458,560.1
		h15.5V456.8H458V560.1z M477,294.8L496,140h-17.6l-19,154.8H477z M523.4,99c8.5,0,14.6,6.9,13.6,15.5l-25.3,205.8
		c-1,8.5-8.8,15.5-17.4,15.5h-63.8c-8.5,0-14.6-6.9-13.6-15.5l25.3-205.8c1-8.5,8.8-15.5,17.4-15.5H523.4z M333.4,320.3
		c-1,8.5-8.8,15.5-17.4,15.5h-63c-8.5,0-14.6-6.9-13.6-15.5L266.6,99h38.6l-24,195.8h17.6l24-195.8h37.8L333.4,320.3z M424.5,99h12
		l-5,41h-12l-24,195.8H352l24-195.8h-12l5-41h12l5.7-46.7h43.4L424.5,99z"/>
	<path class="st2" d="M161.5,233.9l-28.8,96.3h-26.5V281l70.2-234.3h33h8.2h32.2l-35.3,283.4h-40.4l12-96.3H161.5z M206,93.4
		l-30.5,93.9h18.8L206,93.4z M271.1,349.2h46.7v46.7h-46.7V349.2z M271.1,405.1h46.7v196h-46.7V405.1z M205.2,498.5h-17.2v57h17.2
		V498.5z M205.2,394.8h-17.2v57h17.2V394.8z M188.1,349.2h48.4c8.5,0,15.5,6.9,15.5,15.5v95c0,8.5-6.9,15.5-15.5,15.5
		c8.5,0,15.5,6.9,15.5,15.5v95c0,8.5-6.9,15.5-15.5,15.5l-48.4,0h-46.7V475.2v-126H188.1z M337,349.2h46.7v251.9H337V349.2z
		 M402.9,585.7V420c0-8.5,6.9-15.5,15.5-15.5h48.7v-55.3h46.7v251.9h-46.7h-48.7C409.8,601.1,402.9,594.2,402.9,585.7 M451.6,554.5
		h15.5V451.2h-15.5V554.5z M470.6,289.1l19-154.8h-17.6l-19,154.8H470.6z M517,93.4c8.5,0,14.6,6.9,13.6,15.5l-25.3,205.8
		c-1,8.5-8.8,15.5-17.4,15.5h-63.8c-8.5,0-14.6-6.9-13.6-15.5l25.3-205.8c1-8.5,8.8-15.5,17.4-15.5H517z M327,314.7
		c-1,8.5-8.8,15.5-17.4,15.5h-63c-8.5,0-14.6-6.9-13.6-15.5l27.2-221.3h38.6l-24,195.8h17.6l24-195.8h37.8L327,314.7z M418.1,93.4
		h12l-5,41h-12l-24,195.8h-43.4l24-195.8h-12l5-41h12l5.7-46.7h43.4L418.1,93.4z"/>
</g>
</svg>
