<?xml version="1.0" encoding="utf-8"?>
<!-- Generator: Adobe Illustrator 24.2.1, SVG Export Plug-In . SVG Version: 6.00 Build 0)  -->
<svg version="1.1" id="Layer_1" xmlns="http://www.w3.org/2000/svg" xmlns:xlink="http://www.w3.org/1999/xlink" x="0px" y="0px"
	 viewBox="0 0 595.2 130.4" style="enable-background:new 0 0 595.2 130.4;" xml:space="preserve">
<style type="text/css">
	.st0{fill:#070605;}
</style>
<polygon class="st0" points="15.7,0 6.3,24.2 31.8,24.2 0,105 37.4,105 69.3,24.2 94.8,24.2 104.1,0 "/>
<path class="st0" d="M91.7,88.8c7.4,0,10.1-4.7,17.2-22.9c7-18.2,7.7-22.9,1.1-22.9c-7.5,0-10.3,4.8-17.2,22.9
	C85.7,84.1,84.9,88.8,91.7,88.8 M116.8,25c41.4,0,33.3,22.1,25.8,41.1C130.4,96.9,124.8,107,84.7,107C44.6,107,48.2,87,56.4,66
	C69.7,32.2,76.7,25,116.8,25"/>
<path class="st0" d="M198.5,45.8c-7.2,0-10.3,5.6-16.1,20.3c-5.6,14.5-6.8,20.2,0.4,20.2c7.1,0,10.5-5.7,16.1-20.2
	C204.7,51.4,205.6,45.8,198.5,45.8 M161.8,27h35.7l-3.3,9h0.4c2.6-3.8,9.4-9.8,25.1-9.8c29.4,0,24.5,17.3,15.1,41
	c-12.5,32.1-19.6,39.8-44.9,39.8c-9.7,0-17.6-4.1-18.2-11.1h-0.4l-13.3,34.4h-36.3L161.8,27z"/>
<path class="st0" d="M293.5,48.9h45.8L317.5,105h-26.1l2.3-8.4h-0.4c-9.7,9.1-14.5,10.3-31.5,10.3c-38,0-30-23.9-18.4-53.3
	c18.4-46.8,23-53.6,68.8-53.6c37.1,0,39.5,14.3,31.4,34.9h-35.2l1.5-4.2c3.2-7.6,2.4-11.6-4.9-11.6c-9,0-12.2,6.5-14.6,12.7
	L274,74.2c-2.4,6.3-4.7,13.8,4.3,13.8c9,0,12.8-5.3,15.6-13l2.8-7h-10.7L293.5,48.9z"/>
<path class="st0" d="M394.6,51.3c3-7.7,1.7-9.8-4.1-9.8c-5.2,0-8.7,2.1-11.6,9.8l-1.9,4.6h15.7L394.6,51.3z M367.4,80.8
	c-1.7,4.2-3.5,9.8,3.9,9.8c7.1,0,9.9-5,13-13h32.9c-4.1,10.6-8.8,19.9-18.2,24c-8.8,3.9-14.8,5.3-33.9,5.3
	c-38.4,0-37.7-17.1-28.3-41.1C352.3,26.8,357.1,25,397.2,25c41.4,0,34.5,21.2,24.5,44.2l-0.6,1.3h-49.8L367.4,80.8z"/>
<path class="st0" d="M476.4,67.2c-2.8,1.1-5.8,1.9-10.3,3c-6.5,1.7-9,5.3-10.6,9.9c-1.9,4.6-0.9,7.8,4.1,7.8c7.1,0,10.7-5,12.4-9.5
	L476.4,67.2z M499.1,93.5c-1.5,4-2,7.9-1.1,11.5h-34.1c-0.1-2.8,0.4-5.6,1.5-8.2l-0.4-0.1c-7.3,7.6-8.4,10.3-27.7,10.3
	c-17.1,0-24.4-8.2-18.6-23c6.7-17.3,19.1-22,33.7-24.5l18-3c8.1-1.3,11.3-3,13.3-8.1c1.5-3.9-0.7-6.1-4.7-6.1
	c-7.7,0-10.5,4.5-12.2,9H435c9.5-25.1,21.1-26.2,51.1-26.2c33.2,0,35.6,10.3,30.9,22.4L499.1,93.5z"/>
<path class="st0" d="M531.4,27h35.2l-4.5,11.6h0.4c6.6-7.5,17-12.6,27-12.6c3.9,0,4.9,0.3,5.8,0.5L585.5,51
	c-1.3-0.1-2.8-0.3-4.5-0.4c-1.5-0.1-3-0.1-6.8-0.1c-12.6,0-17.6,5.1-21.2,14.3L537.4,105H501L531.4,27z"/>
</svg>
