<svg class="svg-icon" style="width: 1em; height: 1em;vertical-align: middle;fill: currentColor;overflow: hidden;" viewBox="0 0 1024 1024" version="1.1" xmlns="http://www.w3.org/2000/svg"><path d="M661.4 932.9H362.6c-38.9 0-70.6-31.7-70.6-70.6V161.7c0-38.9 31.7-70.6 70.6-70.6h298.9c38.9 0 70.6 31.7 70.6 70.6v700.6c-0.1 38.9-31.7 70.6-70.7 70.6zM362.6 103.1c-32.3 0-58.6 26.3-58.6 58.6v700.6c0 32.3 26.3 58.6 58.6 58.6h298.9c32.3 0 58.6-26.3 58.6-58.6V161.7c0-32.3-26.3-58.6-58.6-58.6H362.6z" fill="#00024A" /><path d="M594.4 892.1h-150c-3.6 0-6.6-2.9-6.6-6.6 0-3.6 2.9-6.6 6.6-6.6h150c3.6 0 6.6 2.9 6.6 6.6 0 3.6-2.9 6.6-6.6 6.6zM642.4 103.1c-5.3 0-9.5 4.3-9.5 9.6 0 16.4-13.3 29.8-29.8 29.8H435.8c-16.4 0-29.8-13.3-29.8-29.8 0-5.3-4.3-9.6-9.6-9.6h246z" fill="#00024A" /></svg>