<svg class="svg-icon" style="width: 1em; height: 1em;vertical-align: middle;fill: currentColor;overflow: hidden;" viewBox="0 0 1024 1024" version="1.1" xmlns="http://www.w3.org/2000/svg"><path d="M664.9 959.8c35.8 0 65.5-29.3 65.5-65.3v-765c0-35.8-29.3-65.3-65.3-65.3H358.9c-36 0-65.3 29.3-65.3 65.3v765.1c0 36 29.7 65.3 65.5 65.3h305.8zM568.8 92.6c4.6 0 8.3 3.7 8.3 8.3 0 4.6-3.7 8.3-8.3 8.3-4.6 0-8.3-3.7-8.3-8.3 0-4.6 3.7-8.3 8.3-8.3z m-94.4 8c0-0.9 0.2-3.9 4.2-3.9h59.9c3.9 0 4.2 3.1 4.2 3.9v0.7c0 0.9-0.2 3.9-4.2 3.9h-59.9c-3.9 0-4.2-3.1-4.2-3.9v-0.7z m124.5 29.1c15.9 0 21-9.6 22.3-18.1 0.2-1.3 0-17 0-17.7 0.7-5.5 6.3-7.4 9.6-7.9h38.4c21.6 0 39.3 17.7 39.3 39.3v773.4c0 21.6-17.7 39.3-39.3 39.3H354.7c-21.6 0-39.3-17.7-39.3-39.3V125.3c0-21.6 17.7-39.3 39.3-39.3h38.4c3.3 0.4 9 2.4 9.6 7.9 0 0.4-0.2 16.4 0 17.7 1.5 8.5 6.6 18.1 22.3 18.1h173.9z"  /></svg>